# 3ds Max Wavefront OBJ Exporter v0.97b - (c)2007 guruware
# File Created: 27.01.2018 02:21:41

#
# object Rocket_BIG
#

v  51.9373 -81.5031 -126.7920
v  51.9373 -13.4391 -126.7920
v  64.1951 -13.4391 -89.0664
v  64.1951 -81.5031 -89.0664
v  19.8460 -81.5031 -150.1077
v  19.8460 -13.4391 -150.1077
v  -19.8210 -81.5031 -150.1077
v  -19.8210 -13.4391 -150.1076
v  -51.9122 -81.5031 -126.7920
v  -51.9122 -13.4391 -126.7920
v  -64.1700 -81.5031 -89.0664
v  -64.1700 -13.4391 -89.0664
v  -51.9122 -81.5031 -51.3409
v  -51.9122 -13.4391 -51.3409
v  -19.8210 -81.5031 -28.0252
v  -19.8210 -13.4391 -28.0252
v  19.8460 -81.5031 -28.0252
v  19.8460 -13.4391 -28.0252
v  51.9373 -81.5031 -51.3409
v  51.9373 -13.4391 -51.3409
v  64.1951 122.6887 -89.0664
v  51.9373 122.6887 -126.7920
v  51.9373 185.5968 -126.7920
v  64.1951 185.5968 -89.0664
v  19.8460 122.6887 -150.1076
v  19.8460 185.5968 -150.1077
v  -19.8210 122.6887 -150.1076
v  -19.8210 185.5968 -150.1077
v  -51.9122 122.6887 -126.7920
v  -51.9122 185.5968 -126.7920
v  -64.1700 122.6887 -89.0664
v  -64.1700 185.5968 -89.0664
v  -51.9122 122.6887 -51.3409
v  -51.9122 185.5968 -51.3409
v  -19.8210 122.6887 -28.0252
v  -19.8210 185.5968 -28.0252
v  19.8460 122.6887 -28.0252
v  19.8460 185.5968 -28.0252
v  51.9373 122.6887 -51.3409
v  51.9373 185.5968 -51.3409
v  48.0842 243.5004 -123.9926
v  59.4324 243.5004 -89.0664
v  18.3743 243.5004 -145.5781
v  -18.3492 243.5004 -145.5781
v  -48.0592 243.5004 -123.9926
v  -59.4074 243.5004 -89.0664
v  -48.0592 243.5004 -54.1403
v  -18.3492 243.5004 -32.5548
v  18.3743 243.5004 -32.5548
v  48.0843 243.5004 -54.1403
v  31.6222 306.7727 -112.0322
v  39.0842 306.7727 -89.0665
v  12.0864 306.7727 -126.2259
v  -12.0613 306.7727 -126.2258
v  -31.5971 306.7727 -112.0322
v  -39.0592 306.7727 -89.0664
v  -31.5971 306.7727 -66.1007
v  -12.0613 306.7727 -51.9071
v  12.0864 306.7727 -51.9071
v  31.6222 306.7727 -66.1007
v  0.0125 351.1285 -89.0665
v  51.9373 54.6248 -126.7920
v  64.1951 54.6248 -89.0664
v  64.1951 -149.5670 -89.0665
v  39.5482 -181.8718 -89.0665
v  31.9976 -181.8718 -112.3050
v  51.9373 -149.5670 -126.7920
v  19.8460 54.6248 -150.1077
v  12.2297 -181.8718 -126.6671
v  19.8460 -149.5670 -150.1077
v  -19.8210 54.6248 -150.1076
v  -12.2047 -181.8718 -126.6671
v  -19.8210 -149.5670 -150.1077
v  -51.9122 54.6248 -126.7920
v  -31.9725 -181.8718 -112.3049
v  -51.9122 -149.5670 -126.7920
v  -64.1700 54.6248 -89.0664
v  -39.5232 -181.8718 -89.0665
v  -64.1700 -149.5670 -89.0664
v  -51.9122 54.6248 -51.3409
v  -31.9725 -181.8718 -65.8279
v  -51.9122 -149.5670 -51.3409
v  -19.8210 54.6248 -28.0252
v  -12.2047 -181.8718 -51.4658
v  -19.8210 -149.5670 -28.0252
v  19.8460 54.6248 -28.0252
v  12.2297 -181.8718 -51.4658
v  19.8460 -149.5670 -28.0252
v  51.9373 54.6248 -51.3409
v  31.9976 -181.8718 -65.8280
v  51.9373 -149.5670 -51.3409
v  39.5482 -213.2133 -89.0665
v  31.9976 -213.2133 -112.3050
v  12.2297 -213.2133 -126.6671
v  -12.2047 -213.2133 -126.6671
v  -31.9725 -213.2133 -112.3049
v  -39.5232 -213.2133 -89.0665
v  -31.9725 -213.2133 -65.8279
v  -12.2047 -213.2133 -51.4658
v  12.2297 -213.2133 -51.4658
v  31.9976 -213.2133 -65.8280
v  54.7717 -257.5997 -89.0665
v  44.3136 -257.5997 -121.2531
v  16.9340 -257.5997 -141.1455
v  -16.9090 -257.5997 -141.1455
v  -44.2885 -257.5997 -121.2531
v  -54.7466 -257.5997 -89.0665
v  -44.2885 -257.5997 -56.8798
v  -16.9090 -257.5997 -36.9874
v  16.9341 -257.5997 -36.9874
v  44.3136 -257.5997 -56.8799
v  36.1518 -257.5997 -89.0665
v  29.2498 -257.5997 -110.3086
v  11.1802 -257.5997 -123.4369
v  -11.1551 -257.5997 -123.4369
v  -29.2247 -257.5997 -110.3086
v  -36.1267 -257.5997 -89.0665
v  -29.2247 -257.5997 -67.8243
v  -11.1551 -257.5997 -54.6960
v  11.1802 -257.5997 -54.6960
v  29.2498 -257.5997 -67.8243
v  36.1518 -205.0743 -89.0665
v  29.2498 -205.0743 -110.3086
v  11.1802 -205.0743 -123.4369
v  -11.1551 -205.0743 -123.4369
v  -29.2247 -205.0743 -110.3086
v  -36.1267 -205.0743 -89.0665
v  -29.2247 -205.0743 -67.8243
v  -11.1551 -205.0743 -54.6960
v  11.1802 -205.0743 -54.6960
v  29.2498 -205.0743 -67.8243
# 131 vertices

vn 0.8090 0.0000 -0.5878
vn 1.0000 0.0000 -0.0000
vn 0.3090 0.0000 -0.9511
vn -0.3090 0.0000 -0.9511
vn -0.8090 0.0000 -0.5878
vn -1.0000 -0.0000 0.0000
vn -0.8090 -0.0000 0.5878
vn -0.3090 -0.0000 0.9511
vn 0.3090 -0.0000 0.9511
vn 0.8090 -0.0000 0.5878
vn 1.0000 -0.0000 -0.0000
vn 0.8090 -0.0000 -0.5878
vn 0.8083 0.0407 -0.5873
vn 0.9992 0.0407 -0.0000
vn 0.3090 -0.0000 -0.9511
vn 0.3088 0.0407 -0.9503
vn -0.3090 -0.0000 -0.9511
vn -0.3088 0.0407 -0.9503
vn -0.8090 -0.0000 -0.5878
vn -0.8083 0.0407 -0.5873
vn -0.9992 0.0407 0.0000
vn -0.8084 0.0407 0.5873
vn -0.3088 0.0407 0.9503
vn 0.3088 0.0407 0.9503
vn 0.8083 0.0407 0.5873
vn 0.7941 0.1912 -0.5769
vn 0.9816 0.1912 -0.0000
vn 0.3033 0.1912 -0.9335
vn -0.3033 0.1912 -0.9335
vn -0.7941 0.1912 -0.5769
vn -0.9816 0.1912 0.0000
vn -0.7941 0.1912 0.5769
vn -0.3033 0.1912 0.9335
vn 0.3033 0.1912 0.9335
vn 0.7941 0.1912 0.5769
vn 0.7109 0.4774 -0.5165
vn 0.8787 0.4774 -0.0000
vn 0.2715 0.4774 -0.8357
vn -0.2715 0.4774 -0.8357
vn -0.7109 0.4774 -0.5165
vn -0.8787 0.4774 0.0000
vn -0.7109 0.4774 0.5165
vn -0.2715 0.4774 0.8357
vn 0.2715 0.4774 0.8357
vn 0.7109 0.4774 0.5165
vn 0.0000 1.0000 -0.0000
vn 0.9532 -0.3025 -0.0000
vn 0.9401 -0.3410 -0.0000
vn 0.7605 -0.3410 -0.5526
vn 0.7711 -0.3025 -0.5602
vn 0.2905 -0.3410 -0.8940
vn 0.2945 -0.3025 -0.9065
vn -0.2905 -0.3410 -0.8940
vn -0.2945 -0.3025 -0.9065
vn -0.7605 -0.3410 -0.5526
vn -0.7711 -0.3025 -0.5602
vn -0.9400 -0.3411 0.0000
vn -0.9531 -0.3025 -0.0000
vn -0.7605 -0.3410 0.5526
vn -0.7711 -0.3025 0.5603
vn -0.2905 -0.3410 0.8940
vn -0.2945 -0.3025 0.9065
vn 0.2905 -0.3410 0.8940
vn 0.2945 -0.3025 0.9065
vn 0.7605 -0.3410 0.5525
vn 0.7711 -0.3025 0.5602
vn 0.9855 0.1700 -0.0000
vn 0.7972 0.1700 -0.5792
vn 0.3045 0.1700 -0.9372
vn -0.3045 0.1700 -0.9372
vn -0.7972 0.1700 -0.5792
vn -0.9854 0.1700 0.0000
vn -0.7972 0.1700 0.5792
vn -0.3045 0.1700 0.9372
vn 0.3045 0.1700 0.9372
vn 0.7973 0.1700 0.5792
vn 0.8566 -0.5159 -0.0000
vn 0.6930 -0.5159 -0.5035
vn 0.2647 -0.5159 -0.8147
vn -0.2647 -0.5159 -0.8147
vn -0.6930 -0.5159 -0.5035
vn -0.8566 -0.5159 0.0000
vn -0.6930 -0.5159 0.5035
vn -0.2647 -0.5159 0.8147
vn 0.2647 -0.5159 0.8147
vn 0.6930 -0.5159 0.5035
vn -0.6211 -0.7837 0.0000
vn -0.5025 -0.7837 0.3651
vn -0.1919 -0.7837 0.5907
vn 0.1919 -0.7837 0.5907
vn 0.5025 -0.7837 0.3651
vn 0.6211 -0.7837 -0.0000
vn 0.5025 -0.7837 -0.3651
vn 0.1919 -0.7837 -0.5907
vn -0.1919 -0.7837 -0.5907
vn -0.5025 -0.7837 -0.3651
vn -0.7653 -0.6437 0.0000
vn -0.6191 -0.6437 0.4498
vn -0.2365 -0.6437 0.7278
vn 0.2365 -0.6437 0.7278
vn 0.6191 -0.6438 0.4498
vn 0.7652 -0.6438 -0.0000
vn 0.6191 -0.6437 -0.4498
vn 0.2365 -0.6437 -0.7278
vn -0.2365 -0.6437 -0.7278
vn -0.6191 -0.6437 -0.4498
# 106 vertex normals

vt 0.8500 0.0800 1.0000
vt 0.8500 0.1200 1.0000
vt 0.7500 0.1200 1.0000
vt 0.7500 0.0800 1.0000
vt 0.9500 0.0800 1.0000
vt 0.9500 0.1200 1.0000
vt 0.0500 0.0800 1.0000
vt 0.0500 0.1200 1.0000
vt -0.0500 0.1200 1.0000
vt -0.0500 0.0800 1.0000
vt 0.1500 0.0800 1.0000
vt 0.1500 0.1200 1.0000
vt 0.2500 0.0800 1.0000
vt 0.2500 0.1200 1.0000
vt 0.3500 0.0800 1.0000
vt 0.3500 0.1200 1.0000
vt 0.4500 0.0800 1.0000
vt 0.4500 0.1200 1.0000
vt 0.5500 0.0800 1.0000
vt 0.5500 0.1200 1.0000
vt 0.6500 0.0800 1.0000
vt 0.6500 0.1200 1.0000
vt 0.7500 0.2000 1.0000
vt 0.8500 0.2000 1.0000
vt 0.8500 0.4000 1.0000
vt 0.7500 0.4000 1.0000
vt 0.9500 0.2000 1.0000
vt 0.9500 0.4000 1.0000
vt -0.0500 0.2000 1.0000
vt 0.0500 0.2000 1.0000
vt 0.0500 0.4000 1.0000
vt -0.0500 0.4000 1.0000
vt 0.1500 0.2000 1.0000
vt 0.1500 0.4000 1.0000
vt 0.2500 0.2000 1.0000
vt 0.2500 0.4000 1.0000
vt 0.3500 0.2000 1.0000
vt 0.3500 0.4000 1.0000
vt 0.4500 0.2000 1.0000
vt 0.4500 0.4000 1.0000
vt 0.5500 0.2000 1.0000
vt 0.5500 0.4000 1.0000
vt 0.6500 0.2000 1.0000
vt 0.6500 0.4000 1.0000
vt 0.8500 0.6000 1.0000
vt 0.7500 0.6000 1.0000
vt 0.9500 0.6000 1.0000
vt 0.0500 0.6000 1.0000
vt -0.0500 0.6000 1.0000
vt 0.1500 0.6000 1.0000
vt 0.2500 0.6000 1.0000
vt 0.3500 0.6000 1.0000
vt 0.4500 0.6000 1.0000
vt 0.5500 0.6000 1.0000
vt 0.6500 0.6000 1.0000
vt 0.8500 0.8000 1.0000
vt 0.7500 0.8000 1.0000
vt 0.9500 0.8000 1.0000
vt 0.0500 0.8000 1.0000
vt -0.0500 0.8000 1.0000
vt 0.1500 0.8000 1.0000
vt 0.2500 0.8000 1.0000
vt 0.3500 0.8000 1.0000
vt 0.4500 0.8000 1.0000
vt 0.5500 0.8000 1.0000
vt 0.6500 0.8000 1.0000
vt 0.5445 1.0000 0.1382
vt 0.2500 1.0000 1.0000
vt 0.8500 0.1600 1.0000
vt 0.7500 0.1600 1.0000
vt 0.7500 0.0400 1.0000
vt 0.7500 0.0000 1.0000
vt 0.8500 0.0000 1.0000
vt 0.8500 0.0400 1.0000
vt 0.9500 0.1600 1.0000
vt 0.9500 0.0000 1.0000
vt 0.9500 0.0400 1.0000
vt 0.0500 0.1600 1.0000
vt -0.0500 0.1600 1.0000
vt -0.0500 0.0400 1.0000
vt -0.0500 0.0000 1.0000
vt 0.0500 0.0000 1.0000
vt 0.0500 0.0400 1.0000
vt 0.1500 0.1600 1.0000
vt 0.1500 0.0000 1.0000
vt 0.1500 0.0400 1.0000
vt 0.2500 0.1600 1.0000
vt 0.2500 0.0000 1.0000
vt 0.2500 0.0400 1.0000
vt 0.3500 0.1600 1.0000
vt 0.3500 0.0000 1.0000
vt 0.3500 0.0400 1.0000
vt 0.4500 0.1600 1.0000
vt 0.4500 0.0000 1.0000
vt 0.4500 0.0400 1.0000
vt 0.5500 0.1600 1.0000
vt 0.5500 0.0000 1.0000
vt 0.5500 0.0400 1.0000
vt 0.6500 0.1600 1.0000
vt 0.6500 0.0000 1.0000
vt 0.6500 0.0400 1.0000
# 101 texture coords

o Rocket_BIG
g Rocket_BIG
s off
f 1/1/1 2/2/1 3/3/2 4/4/2 
f 5/5/3 6/6/3 2/2/1 1/1/1 
f 7/7/4 8/8/4 6/9/3 5/10/3 
f 9/11/5 10/12/5 8/8/4 7/7/4 
f 11/13/6 12/14/6 10/12/5 9/11/5 
f 13/15/7 14/16/7 12/14/6 11/13/6 
f 15/17/8 16/18/8 14/16/7 13/15/7 
f 17/19/9 18/20/9 16/18/8 15/17/8 
f 19/21/10 20/22/10 18/20/9 17/19/9 
f 4/4/2 3/3/2 20/22/10 19/21/10 
f 21/23/11 22/24/12 23/25/13 24/26/14 
f 22/24/12 25/27/15 26/28/16 23/25/13 
f 25/29/15 27/30/17 28/31/18 26/32/16 
f 27/30/17 29/33/19 30/34/20 28/31/18 
f 29/33/19 31/35/6 32/36/21 30/34/20 
f 31/35/6 33/37/7 34/38/22 32/36/21 
f 33/37/7 35/39/8 36/40/23 34/38/22 
f 35/39/8 37/41/9 38/42/24 36/40/23 
f 37/41/9 39/43/10 40/44/25 38/42/24 
f 39/43/10 21/23/11 24/26/14 40/44/25 
f 24/26/14 23/25/13 41/45/26 42/46/27 
f 23/25/13 26/28/16 43/47/28 41/45/26 
f 26/32/16 28/31/18 44/48/29 43/49/28 
f 28/31/18 30/34/20 45/50/30 44/48/29 
f 30/34/20 32/36/21 46/51/31 45/50/30 
f 32/36/21 34/38/22 47/52/32 46/51/31 
f 34/38/22 36/40/23 48/53/33 47/52/32 
f 36/40/23 38/42/24 49/54/34 48/53/33 
f 38/42/24 40/44/25 50/55/35 49/54/34 
f 40/44/25 24/26/14 42/46/27 50/55/35 
f 42/46/27 41/45/26 51/56/36 52/57/37 
f 41/45/26 43/47/28 53/58/38 51/56/36 
f 43/49/28 44/48/29 54/59/39 53/60/38 
f 44/48/29 45/50/30 55/61/40 54/59/39 
f 45/50/30 46/51/31 56/62/41 55/61/40 
f 46/51/31 47/52/32 57/63/42 56/62/41 
f 47/52/32 48/53/33 58/64/43 57/63/42 
f 48/53/33 49/54/34 59/65/44 58/64/43 
f 49/54/34 50/55/35 60/66/45 59/65/44 
f 50/55/35 42/46/27 52/57/37 60/66/45 
f 52/57/37 51/56/36 61/67/46 
f 51/56/36 53/58/38 61/67/46 
f 53/60/38 54/59/39 61/68/46 
f 54/59/39 55/61/40 61/68/46 
f 55/61/40 56/62/41 61/68/46 
f 56/62/41 57/63/42 61/68/46 
f 57/63/42 58/64/43 61/68/46 
f 58/64/43 59/65/44 61/68/46 
f 59/65/44 60/66/45 61/68/46 
f 60/66/45 52/57/37 61/67/46 
f 62/69/1 22/24/12 21/23/11 63/70/2 
f 2/2/1 62/69/1 63/70/2 3/3/2 
f 64/71/47 65/72/48 66/73/49 67/74/50 
f 4/4/2 64/71/47 67/74/50 1/1/1 
f 68/75/3 25/27/15 22/24/12 62/69/1 
f 6/6/3 68/75/3 62/69/1 2/2/1 
f 67/74/50 66/73/49 69/76/51 70/77/52 
f 1/1/1 67/74/50 70/77/52 5/5/3 
f 71/78/4 27/30/17 25/29/15 68/79/3 
f 8/8/4 71/78/4 68/79/3 6/9/3 
f 70/80/52 69/81/51 72/82/53 73/83/54 
f 5/10/3 70/80/52 73/83/54 7/7/4 
f 74/84/5 29/33/19 27/30/17 71/78/4 
f 10/12/5 74/84/5 71/78/4 8/8/4 
f 73/83/54 72/82/53 75/85/55 76/86/56 
f 7/7/4 73/83/54 76/86/56 9/11/5 
f 77/87/6 31/35/6 29/33/19 74/84/5 
f 12/14/6 77/87/6 74/84/5 10/12/5 
f 76/86/56 75/85/55 78/88/57 79/89/58 
f 9/11/5 76/86/56 79/89/58 11/13/6 
f 80/90/7 33/37/7 31/35/6 77/87/6 
f 14/16/7 80/90/7 77/87/6 12/14/6 
f 79/89/58 78/88/57 81/91/59 82/92/60 
f 11/13/6 79/89/58 82/92/60 13/15/7 
f 83/93/8 35/39/8 33/37/7 80/90/7 
f 16/18/8 83/93/8 80/90/7 14/16/7 
f 82/92/60 81/91/59 84/94/61 85/95/62 
f 13/15/7 82/92/60 85/95/62 15/17/8 
f 86/96/9 37/41/9 35/39/8 83/93/8 
f 18/20/9 86/96/9 83/93/8 16/18/8 
f 85/95/62 84/94/61 87/97/63 88/98/64 
f 15/17/8 85/95/62 88/98/64 17/19/9 
f 89/99/10 39/43/10 37/41/9 86/96/9 
f 20/22/10 89/99/10 86/96/9 18/20/9 
f 88/98/64 87/97/63 90/100/65 91/101/66 
f 17/19/9 88/98/64 91/101/66 19/21/10 
f 63/70/2 21/23/11 39/43/10 89/99/10 
f 3/3/2 63/70/2 89/99/10 20/22/10 
f 91/101/66 90/100/65 65/72/48 64/71/47 
f 19/21/10 91/101/66 64/71/47 4/4/2 
f 66/73/49 65/72/48 92/72/67 93/73/68 
f 69/76/51 66/73/49 93/73/68 94/76/69 
f 72/82/53 69/81/51 94/81/69 95/82/70 
f 75/85/55 72/82/53 95/82/70 96/85/71 
f 78/88/57 75/85/55 96/85/71 97/88/72 
f 81/91/59 78/88/57 97/88/72 98/91/73 
f 84/94/61 81/91/59 98/91/73 99/94/74 
f 87/97/63 84/94/61 99/94/74 100/97/75 
f 90/100/65 87/97/63 100/97/75 101/100/76 
f 65/72/48 90/100/65 101/100/76 92/72/67 
f 93/73/68 92/72/67 102/72/77 103/73/78 
f 94/76/69 93/73/68 103/73/78 104/76/79 
f 95/82/70 94/81/69 104/81/79 105/82/80 
f 96/85/71 95/82/70 105/82/80 106/85/81 
f 97/88/72 96/85/71 106/85/81 107/88/82 
f 98/91/73 97/88/72 107/88/82 108/91/83 
f 99/94/74 98/91/73 108/91/83 109/94/84 
f 100/97/75 99/94/74 109/94/84 110/97/85 
f 101/100/76 100/97/75 110/97/85 111/100/86 
f 92/72/67 101/100/76 111/100/86 102/72/77 
f 103/73/78 102/72/77 112/72/87 113/73/88 
f 104/76/79 103/73/78 113/73/88 114/76/89 
f 105/82/80 104/81/79 114/81/89 115/82/90 
f 106/85/81 105/82/80 115/82/90 116/85/91 
f 107/88/82 106/85/81 116/85/91 117/88/92 
f 108/91/83 107/88/82 117/88/92 118/91/93 
f 109/94/84 108/91/83 118/91/93 119/94/94 
f 110/97/85 109/94/84 119/94/94 120/97/95 
f 111/100/86 110/97/85 120/97/95 121/100/96 
f 102/72/77 111/100/86 121/100/96 112/72/87 
f 113/73/88 112/72/87 122/72/97 123/73/98 
f 114/76/89 113/73/88 123/73/98 124/76/99 
f 115/82/90 114/81/89 124/81/99 125/82/100 
f 116/85/91 115/82/90 125/82/100 126/85/101 
f 117/88/92 116/85/91 126/85/101 127/88/102 
f 118/91/93 117/88/92 127/88/102 128/91/103 
f 119/94/94 118/91/93 128/91/103 129/94/104 
f 120/97/95 119/94/94 129/94/104 130/97/105 
f 121/100/96 120/97/95 130/97/105 131/100/106 
f 112/72/87 121/100/96 131/100/106 122/72/97 
f 122/72/97 127/88/102 126/85/101 123/73/98 
f 131/100/106 130/97/105 129/94/104 128/91/103 
f 128/91/103 127/88/102 122/72/97 131/100/106 
f 126/85/101 125/82/100 124/81/99 123/73/98 
# 124 polygons - 10 triangles

