# 3ds Max Wavefront OBJ Exporter v0.97b - (c)2007 guruware
# File Created: 27.01.2018 02:22:25

#
# object Rocket_small_1
#

v  -61.3100 -116.2786 -139.6625
v  -61.3100 -59.2114 -139.6625
v  -54.4891 -59.2114 -118.6698
v  -54.4891 -116.2786 -118.6698
v  -79.1675 -116.2786 -152.6367
v  -79.1675 -59.2114 -152.6367
v  -101.2405 -116.2786 -152.6367
v  -101.2405 -59.2114 -152.6367
v  -119.0980 -116.2786 -139.6625
v  -119.0980 -59.2114 -139.6625
v  -125.9190 -116.2786 -118.6698
v  -125.9190 -59.2114 -118.6698
v  -119.0980 -116.2786 -97.6771
v  -119.0980 -59.2114 -97.6771
v  -101.2405 -116.2786 -84.7029
v  -101.2405 -59.2114 -84.7029
v  -79.1675 -116.2786 -84.7029
v  -79.1675 -59.2114 -84.7029
v  -61.3100 -116.2786 -97.6771
v  -61.3100 -59.2114 -97.6771
v  -54.4891 54.9232 -118.6698
v  -61.3100 54.9232 -139.6625
v  -61.3100 107.6677 -139.6625
v  -54.4891 107.6677 -118.6698
v  -79.1675 54.9232 -152.6367
v  -79.1675 107.6677 -152.6367
v  -101.2405 54.9232 -152.6367
v  -101.2405 107.6677 -152.6367
v  -119.0980 54.9232 -139.6625
v  -119.0980 107.6677 -139.6625
v  -125.9190 54.9232 -118.6698
v  -125.9190 107.6677 -118.6698
v  -119.0980 54.9232 -97.6771
v  -119.0980 107.6677 -97.6771
v  -101.2405 54.9232 -84.7029
v  -101.2405 107.6677 -84.7029
v  -79.1675 54.9232 -84.7029
v  -79.1675 107.6677 -84.7029
v  -61.3100 54.9232 -97.6771
v  -61.3100 107.6677 -97.6771
v  -63.4541 156.2162 -138.1047
v  -57.1393 156.2162 -118.6698
v  -79.9865 156.2162 -150.1162
v  -100.4216 156.2162 -150.1162
v  -116.9539 156.2162 -138.1047
v  -123.2688 156.2162 -118.6698
v  -116.9539 156.2162 -99.2348
v  -100.4216 156.2162 -87.2234
v  -79.9865 156.2162 -87.2234
v  -63.4541 156.2162 -99.2348
v  -71.2792 188.5512 -132.4195
v  -66.8116 188.5512 -118.6698
v  -82.9754 188.5512 -140.9173
v  -97.4327 188.5512 -140.9173
v  -109.1289 188.5512 -132.4195
v  -113.5964 188.5512 -118.6698
v  -109.1289 188.5512 -104.9201
v  -97.4327 188.5512 -96.4223
v  -82.9754 188.5512 -96.4223
v  -71.2792 188.5512 -104.9201
v  -90.2040 220.5672 -118.6698
v  -61.3100 -2.1441 -139.6625
v  -54.4891 -2.1441 -118.6698
v  -54.4891 -183.0431 -118.6698
v  -68.2040 -200.4315 -118.6698
v  -72.4057 -200.4315 -131.6010
v  -61.3100 -183.0431 -139.6625
v  -79.1675 -2.1441 -152.6367
v  -83.4057 -200.4315 -139.5930
v  -79.1675 -183.0431 -152.6367
v  -101.2405 -2.1441 -152.6367
v  -97.0024 -200.4315 -139.5930
v  -101.2405 -183.0431 -152.6367
v  -119.0980 -2.1441 -139.6625
v  -108.0024 -200.4315 -131.6010
v  -119.0980 -183.0431 -139.6625
v  -125.9190 -2.1441 -118.6698
v  -112.2040 -200.4315 -118.6698
v  -125.9190 -183.0431 -118.6698
v  -119.0980 -2.1441 -97.6771
v  -108.0024 -200.4315 -105.7385
v  -119.0980 -183.0431 -97.6771
v  -101.2405 -2.1441 -84.7029
v  -97.0024 -200.4315 -97.7465
v  -101.2405 -183.0431 -84.7029
v  -79.1675 -2.1441 -84.7029
v  -83.4057 -200.4315 -97.7465
v  -79.1675 -183.0431 -84.7029
v  -61.3100 -2.1441 -97.6771
v  -72.4057 -200.4315 -105.7385
v  -61.3100 -183.0431 -97.6771
v  -68.2040 -232.0965 -118.6698
v  -72.4057 -232.0965 -131.6010
v  -83.4057 -232.0965 -139.5930
v  -97.0024 -232.0965 -139.5930
v  -108.0024 -232.0965 -131.6010
v  -112.2040 -232.0965 -118.6698
v  -108.0024 -232.0965 -105.7385
v  -97.0024 -232.0965 -97.7465
v  -83.4057 -232.0965 -97.7465
v  -72.4057 -232.0965 -105.7385
v  -59.7328 -257.5997 -118.6698
v  -65.5523 -257.5997 -136.5803
v  -80.7879 -257.5997 -147.6496
v  -99.6201 -257.5997 -147.6496
v  -114.8558 -257.5997 -136.5803
v  -120.6752 -257.5997 -118.6698
v  -114.8557 -257.5997 -100.7592
v  -99.6201 -257.5997 -89.6899
v  -80.7879 -257.5997 -89.6899
v  -65.5523 -257.5997 -100.7593
v  -70.0940 -257.5997 -118.6698
v  -73.9347 -257.5997 -130.4901
v  -83.9897 -257.5997 -137.7955
v  -96.4184 -257.5997 -137.7955
v  -106.4734 -257.5997 -130.4901
v  -110.3140 -257.5997 -118.6698
v  -106.4734 -257.5997 -106.8494
v  -96.4184 -257.5997 -99.5440
v  -83.9897 -257.5997 -99.5440
v  -73.9347 -257.5997 -106.8494
v  -70.0940 -225.2724 -118.6698
v  -73.9347 -225.2724 -130.4901
v  -83.9897 -225.2724 -137.7955
v  -96.4184 -225.2724 -137.7955
v  -106.4734 -225.2724 -130.4901
v  -110.3140 -225.2724 -118.6698
v  -106.4734 -225.2724 -106.8494
v  -96.4184 -225.2724 -99.5440
v  -83.9897 -225.2724 -99.5440
v  -73.9347 -225.2724 -106.8494
# 131 vertices

vn 0.8090 0.0000 -0.5878
vn 1.0000 0.0000 -0.0000
vn 0.3090 0.0000 -0.9511
vn -0.3090 0.0000 -0.9511
vn -0.8090 0.0000 -0.5878
vn -1.0000 -0.0000 0.0000
vn -0.8090 -0.0000 0.5878
vn -0.3090 -0.0000 0.9511
vn 0.3090 -0.0000 0.9511
vn 0.8090 -0.0000 0.5878
vn 1.0000 -0.0000 -0.0000
vn 0.8090 -0.0000 -0.5878
vn 0.8083 0.0407 -0.5873
vn 0.9992 0.0407 -0.0000
vn 0.3090 -0.0000 -0.9511
vn 0.3088 0.0407 -0.9503
vn -0.3090 -0.0000 -0.9511
vn -0.3088 0.0407 -0.9503
vn -0.8090 -0.0000 -0.5878
vn -0.8083 0.0407 -0.5873
vn -0.9992 0.0407 0.0000
vn -0.8084 0.0407 0.5873
vn -0.3088 0.0407 0.9503
vn 0.3088 0.0407 0.9503
vn 0.8083 0.0407 0.5873
vn 0.7849 0.2423 -0.5703
vn 0.9702 0.2423 -0.0000
vn 0.2998 0.2423 -0.9227
vn -0.2998 0.2423 -0.9227
vn -0.7849 0.2423 -0.5703
vn -0.9702 0.2423 0.0000
vn -0.7849 0.2423 0.5703
vn -0.2998 0.2423 0.9227
vn 0.2998 0.2423 0.9227
vn 0.7849 0.2423 0.5703
vn 0.6650 0.5695 -0.4832
vn 0.8220 0.5695 -0.0000
vn 0.2540 0.5695 -0.7818
vn -0.2540 0.5695 -0.7818
vn -0.6650 0.5695 -0.4832
vn -0.8220 0.5695 0.0000
vn -0.6650 0.5695 0.4832
vn -0.2540 0.5695 0.7818
vn 0.2540 0.5695 0.7818
vn 0.6650 0.5695 0.4832
vn 0.0000 1.0000 0.0000
vn 0.9195 -0.3931 -0.0000
vn 0.8892 -0.4575 -0.0000
vn 0.7194 -0.4575 -0.5227
vn 0.7439 -0.3932 -0.5405
vn 0.2748 -0.4575 -0.8457
vn 0.2841 -0.3931 -0.8745
vn -0.2748 -0.4575 -0.8457
vn -0.2841 -0.3931 -0.8745
vn -0.7194 -0.4574 -0.5227
vn -0.7439 -0.3931 -0.5405
vn -0.8892 -0.4575 0.0000
vn -0.9195 -0.3931 0.0000
vn -0.7194 -0.4575 0.5227
vn -0.7439 -0.3931 0.5405
vn -0.2748 -0.4575 0.8457
vn -0.2841 -0.3931 0.8745
vn 0.2748 -0.4575 0.8457
vn 0.2841 -0.3931 0.8745
vn 0.7194 -0.4574 0.5227
vn 0.7439 -0.3931 0.5404
vn 0.9706 0.2408 -0.0000
vn 0.7852 0.2408 -0.5705
vn 0.2999 0.2408 -0.9231
vn -0.2999 0.2408 -0.9231
vn -0.7852 0.2408 -0.5705
vn -0.9706 0.2408 0.0000
vn -0.7852 0.2408 0.5705
vn -0.2999 0.2408 0.9231
vn 0.2999 0.2408 0.9231
vn 0.7852 0.2408 0.5705
vn 0.8867 -0.4623 -0.0000
vn 0.7174 -0.4623 -0.5212
vn 0.2740 -0.4623 -0.8433
vn -0.2740 -0.4623 -0.8433
vn -0.7174 -0.4623 -0.5212
vn -0.8867 -0.4623 0.0000
vn -0.7174 -0.4623 0.5212
vn -0.2740 -0.4623 0.8433
vn 0.2740 -0.4623 0.8433
vn 0.7174 -0.4623 0.5212
vn -0.6211 -0.7837 -0.0000
vn -0.5025 -0.7837 0.3651
vn -0.1919 -0.7837 0.5907
vn 0.1919 -0.7837 0.5907
vn 0.5025 -0.7837 0.3651
vn 0.6211 -0.7837 -0.0000
vn 0.5025 -0.7837 -0.3651
vn 0.1919 -0.7837 -0.5907
vn -0.1919 -0.7837 -0.5907
vn -0.5025 -0.7837 -0.3651
vn -0.7653 -0.6437 0.0000
vn -0.6192 -0.6437 0.4498
vn -0.2365 -0.6437 0.7278
vn 0.2365 -0.6437 0.7278
vn 0.6192 -0.6437 0.4498
vn 0.7653 -0.6437 0.0001
vn 0.6191 -0.6438 -0.4498
vn 0.2365 -0.6437 -0.7278
vn -0.2365 -0.6437 -0.7278
vn -0.6191 -0.6437 -0.4498
# 106 vertex normals

vt 0.8500 0.0800 1.0000
vt 0.8500 0.1200 1.0000
vt 0.7500 0.1200 1.0000
vt 0.7500 0.0800 1.0000
vt 0.9500 0.0800 1.0000
vt 0.9500 0.1200 1.0000
vt 0.0500 0.0800 1.0000
vt 0.0500 0.1200 1.0000
vt -0.0500 0.1200 1.0000
vt -0.0500 0.0800 1.0000
vt 0.1500 0.0800 1.0000
vt 0.1500 0.1200 1.0000
vt 0.2500 0.0800 1.0000
vt 0.2500 0.1200 1.0000
vt 0.3500 0.0800 1.0000
vt 0.3500 0.1200 1.0000
vt 0.4500 0.0800 1.0000
vt 0.4500 0.1200 1.0000
vt 0.5500 0.0800 1.0000
vt 0.5500 0.1200 1.0000
vt 0.6500 0.0800 1.0000
vt 0.6500 0.1200 1.0000
vt 0.7500 0.2000 1.0000
vt 0.8500 0.2000 1.0000
vt 0.8500 0.4000 1.0000
vt 0.7500 0.4000 1.0000
vt 0.9500 0.2000 1.0000
vt 0.9500 0.4000 1.0000
vt -0.0500 0.2000 1.0000
vt 0.0500 0.2000 1.0000
vt 0.0500 0.4000 1.0000
vt -0.0500 0.4000 1.0000
vt 0.1500 0.2000 1.0000
vt 0.1500 0.4000 1.0000
vt 0.2500 0.2000 1.0000
vt 0.2500 0.4000 1.0000
vt 0.3500 0.2000 1.0000
vt 0.3500 0.4000 1.0000
vt 0.4500 0.2000 1.0000
vt 0.4500 0.4000 1.0000
vt 0.5500 0.2000 1.0000
vt 0.5500 0.4000 1.0000
vt 0.6500 0.2000 1.0000
vt 0.6500 0.4000 1.0000
vt 0.8500 0.6000 1.0000
vt 0.7500 0.6000 1.0000
vt 0.9500 0.6000 1.0000
vt 0.0500 0.6000 1.0000
vt -0.0500 0.6000 1.0000
vt 0.1500 0.6000 1.0000
vt 0.2500 0.6000 1.0000
vt 0.3500 0.6000 1.0000
vt 0.4500 0.6000 1.0000
vt 0.5500 0.6000 1.0000
vt 0.6500 0.6000 1.0000
vt 0.8500 0.8000 1.0000
vt 0.7500 0.8000 1.0000
vt 0.9500 0.8000 1.0000
vt 0.0500 0.8000 1.0000
vt -0.0500 0.8000 1.0000
vt 0.1500 0.8000 1.0000
vt 0.2500 0.8000 1.0000
vt 0.3500 0.8000 1.0000
vt 0.4500 0.8000 1.0000
vt 0.5500 0.8000 1.0000
vt 0.6500 0.8000 1.0000
vt 0.5445 1.0000 0.1382
vt 0.2500 1.0000 1.0000
vt 0.8500 0.1600 1.0000
vt 0.7500 0.1600 1.0000
vt 0.7500 0.0400 1.0000
vt 0.7500 0.0000 1.0000
vt 0.8500 0.0000 1.0000
vt 0.8500 0.0400 1.0000
vt 0.9500 0.1600 1.0000
vt 0.9500 0.0000 1.0000
vt 0.9500 0.0400 1.0000
vt 0.0500 0.1600 1.0000
vt -0.0500 0.1600 1.0000
vt -0.0500 0.0400 1.0000
vt -0.0500 0.0000 1.0000
vt 0.0500 0.0000 1.0000
vt 0.0500 0.0400 1.0000
vt 0.1500 0.1600 1.0000
vt 0.1500 0.0000 1.0000
vt 0.1500 0.0400 1.0000
vt 0.2500 0.1600 1.0000
vt 0.2500 0.0000 1.0000
vt 0.2500 0.0400 1.0000
vt 0.3500 0.1600 1.0000
vt 0.3500 0.0000 1.0000
vt 0.3500 0.0400 1.0000
vt 0.4500 0.1600 1.0000
vt 0.4500 0.0000 1.0000
vt 0.4500 0.0400 1.0000
vt 0.5500 0.1600 1.0000
vt 0.5500 0.0000 1.0000
vt 0.5500 0.0400 1.0000
vt 0.6500 0.1600 1.0000
vt 0.6500 0.0000 1.0000
vt 0.6500 0.0400 1.0000
# 101 texture coords

o Rocket_small_1
g Rocket_small_1
s off
f 1/1/1 2/2/1 3/3/2 4/4/2 
f 5/5/3 6/6/3 2/2/1 1/1/1 
f 7/7/4 8/8/4 6/9/3 5/10/3 
f 9/11/5 10/12/5 8/8/4 7/7/4 
f 11/13/6 12/14/6 10/12/5 9/11/5 
f 13/15/7 14/16/7 12/14/6 11/13/6 
f 15/17/8 16/18/8 14/16/7 13/15/7 
f 17/19/9 18/20/9 16/18/8 15/17/8 
f 19/21/10 20/22/10 18/20/9 17/19/9 
f 4/4/2 3/3/2 20/22/10 19/21/10 
f 21/23/11 22/24/12 23/25/13 24/26/14 
f 22/24/12 25/27/15 26/28/16 23/25/13 
f 25/29/15 27/30/17 28/31/18 26/32/16 
f 27/30/17 29/33/19 30/34/20 28/31/18 
f 29/33/19 31/35/6 32/36/21 30/34/20 
f 31/35/6 33/37/7 34/38/22 32/36/21 
f 33/37/7 35/39/8 36/40/23 34/38/22 
f 35/39/8 37/41/9 38/42/24 36/40/23 
f 37/41/9 39/43/10 40/44/25 38/42/24 
f 39/43/10 21/23/11 24/26/14 40/44/25 
f 24/26/14 23/25/13 41/45/26 42/46/27 
f 23/25/13 26/28/16 43/47/28 41/45/26 
f 26/32/16 28/31/18 44/48/29 43/49/28 
f 28/31/18 30/34/20 45/50/30 44/48/29 
f 30/34/20 32/36/21 46/51/31 45/50/30 
f 32/36/21 34/38/22 47/52/32 46/51/31 
f 34/38/22 36/40/23 48/53/33 47/52/32 
f 36/40/23 38/42/24 49/54/34 48/53/33 
f 38/42/24 40/44/25 50/55/35 49/54/34 
f 40/44/25 24/26/14 42/46/27 50/55/35 
f 42/46/27 41/45/26 51/56/36 52/57/37 
f 41/45/26 43/47/28 53/58/38 51/56/36 
f 43/49/28 44/48/29 54/59/39 53/60/38 
f 44/48/29 45/50/30 55/61/40 54/59/39 
f 45/50/30 46/51/31 56/62/41 55/61/40 
f 46/51/31 47/52/32 57/63/42 56/62/41 
f 47/52/32 48/53/33 58/64/43 57/63/42 
f 48/53/33 49/54/34 59/65/44 58/64/43 
f 49/54/34 50/55/35 60/66/45 59/65/44 
f 50/55/35 42/46/27 52/57/37 60/66/45 
f 52/57/37 51/56/36 61/67/46 
f 51/56/36 53/58/38 61/67/46 
f 53/60/38 54/59/39 61/68/46 
f 54/59/39 55/61/40 61/68/46 
f 55/61/40 56/62/41 61/68/46 
f 56/62/41 57/63/42 61/68/46 
f 57/63/42 58/64/43 61/68/46 
f 58/64/43 59/65/44 61/68/46 
f 59/65/44 60/66/45 61/68/46 
f 60/66/45 52/57/37 61/67/46 
f 62/69/1 22/24/12 21/23/11 63/70/2 
f 2/2/1 62/69/1 63/70/2 3/3/2 
f 64/71/47 65/72/48 66/73/49 67/74/50 
f 4/4/2 64/71/47 67/74/50 1/1/1 
f 68/75/3 25/27/15 22/24/12 62/69/1 
f 6/6/3 68/75/3 62/69/1 2/2/1 
f 67/74/50 66/73/49 69/76/51 70/77/52 
f 1/1/1 67/74/50 70/77/52 5/5/3 
f 71/78/4 27/30/17 25/29/15 68/79/3 
f 8/8/4 71/78/4 68/79/3 6/9/3 
f 70/80/52 69/81/51 72/82/53 73/83/54 
f 5/10/3 70/80/52 73/83/54 7/7/4 
f 74/84/5 29/33/19 27/30/17 71/78/4 
f 10/12/5 74/84/5 71/78/4 8/8/4 
f 73/83/54 72/82/53 75/85/55 76/86/56 
f 7/7/4 73/83/54 76/86/56 9/11/5 
f 77/87/6 31/35/6 29/33/19 74/84/5 
f 12/14/6 77/87/6 74/84/5 10/12/5 
f 76/86/56 75/85/55 78/88/57 79/89/58 
f 9/11/5 76/86/56 79/89/58 11/13/6 
f 80/90/7 33/37/7 31/35/6 77/87/6 
f 14/16/7 80/90/7 77/87/6 12/14/6 
f 79/89/58 78/88/57 81/91/59 82/92/60 
f 11/13/6 79/89/58 82/92/60 13/15/7 
f 83/93/8 35/39/8 33/37/7 80/90/7 
f 16/18/8 83/93/8 80/90/7 14/16/7 
f 82/92/60 81/91/59 84/94/61 85/95/62 
f 13/15/7 82/92/60 85/95/62 15/17/8 
f 86/96/9 37/41/9 35/39/8 83/93/8 
f 18/20/9 86/96/9 83/93/8 16/18/8 
f 85/95/62 84/94/61 87/97/63 88/98/64 
f 15/17/8 85/95/62 88/98/64 17/19/9 
f 89/99/10 39/43/10 37/41/9 86/96/9 
f 20/22/10 89/99/10 86/96/9 18/20/9 
f 88/98/64 87/97/63 90/100/65 91/101/66 
f 17/19/9 88/98/64 91/101/66 19/21/10 
f 63/70/2 21/23/11 39/43/10 89/99/10 
f 3/3/2 63/70/2 89/99/10 20/22/10 
f 91/101/66 90/100/65 65/72/48 64/71/47 
f 19/21/10 91/101/66 64/71/47 4/4/2 
f 66/73/49 65/72/48 92/72/67 93/73/68 
f 69/76/51 66/73/49 93/73/68 94/76/69 
f 72/82/53 69/81/51 94/81/69 95/82/70 
f 75/85/55 72/82/53 95/82/70 96/85/71 
f 78/88/57 75/85/55 96/85/71 97/88/72 
f 81/91/59 78/88/57 97/88/72 98/91/73 
f 84/94/61 81/91/59 98/91/73 99/94/74 
f 87/97/63 84/94/61 99/94/74 100/97/75 
f 90/100/65 87/97/63 100/97/75 101/100/76 
f 65/72/48 90/100/65 101/100/76 92/72/67 
f 93/73/68 92/72/67 102/72/77 103/73/78 
f 94/76/69 93/73/68 103/73/78 104/76/79 
f 95/82/70 94/81/69 104/81/79 105/82/80 
f 96/85/71 95/82/70 105/82/80 106/85/81 
f 97/88/72 96/85/71 106/85/81 107/88/82 
f 98/91/73 97/88/72 107/88/82 108/91/83 
f 99/94/74 98/91/73 108/91/83 109/94/84 
f 100/97/75 99/94/74 109/94/84 110/97/85 
f 101/100/76 100/97/75 110/97/85 111/100/86 
f 92/72/67 101/100/76 111/100/86 102/72/77 
f 103/73/78 102/72/77 112/72/87 113/73/88 
f 104/76/79 103/73/78 113/73/88 114/76/89 
f 105/82/80 104/81/79 114/81/89 115/82/90 
f 106/85/81 105/82/80 115/82/90 116/85/91 
f 107/88/82 106/85/81 116/85/91 117/88/92 
f 108/91/83 107/88/82 117/88/92 118/91/93 
f 109/94/84 108/91/83 118/91/93 119/94/94 
f 110/97/85 109/94/84 119/94/94 120/97/95 
f 111/100/86 110/97/85 120/97/95 121/100/96 
f 102/72/77 111/100/86 121/100/96 112/72/87 
f 113/73/88 112/72/87 122/72/97 123/73/98 
f 114/76/89 113/73/88 123/73/98 124/76/99 
f 115/82/90 114/81/89 124/81/99 125/82/100 
f 116/85/91 115/82/90 125/82/100 126/85/101 
f 117/88/92 116/85/91 126/85/101 127/88/102 
f 118/91/93 117/88/92 127/88/102 128/91/103 
f 119/94/94 118/91/93 128/91/103 129/94/104 
f 120/97/95 119/94/94 129/94/104 130/97/105 
f 121/100/96 120/97/95 130/97/105 131/100/106 
f 112/72/87 121/100/96 131/100/106 122/72/97 
f 122/72/97 127/88/102 126/85/101 123/73/98 
f 131/100/106 130/97/105 129/94/104 128/91/103 
f 128/91/103 127/88/102 122/72/97 131/100/106 
f 126/85/101 125/82/100 124/81/99 123/73/98 
# 124 polygons - 10 triangles

